# Blender 4.1.0
# www.blender.org
mtllib shelf_fixed.mtl
o RealShelf
v -5.062408 7.222219 -0.956682
v -5.062408 7.222219 -3.919602
v -5.062408 6.851849 -0.956682
v -5.062408 6.851849 -3.919602
v 4.381592 7.222219 -3.919602
v -5.062408 7.222219 -3.919602
v 4.381592 7.222219 -0.956682
v -5.062408 7.222219 -0.956682
v -5.062408 7.222219 -3.919602
v 4.381592 7.222219 -3.919602
v -5.062408 6.851849 -3.919602
v 4.381592 6.851849 -3.919602
v 4.381592 7.222219 -3.919602
v 4.381592 7.222219 -0.956682
v 4.381592 6.851849 -3.919602
v 4.381592 6.851849 -0.956682
v 4.381592 6.851849 -0.956682
v -5.062408 6.851849 -0.956682
v 4.381592 6.851849 -3.919602
v -5.062408 6.851849 -3.919602
v 4.381592 7.222219 -0.956682
v -5.062408 7.222219 -0.956682
v 4.381592 6.851849 -0.956682
v -5.062408 6.851849 -0.956682
v -5.062408 3.888889 -0.956681
v -5.062408 3.888889 -3.919601
v -5.062408 3.518519 -0.956681
v -5.062408 3.518519 -3.919601
v 4.381592 3.888889 -3.919601
v -5.062408 3.888889 -3.919601
v 4.381592 3.888889 -0.956681
v -5.062408 3.888889 -0.956681
v -5.062408 3.888889 -3.919601
v 4.381592 3.888889 -3.919601
v -5.062408 3.518519 -3.919601
v 4.381592 3.518519 -3.919601
v 4.381592 3.888889 -3.919601
v 4.381592 3.888889 -0.956681
v 4.381592 3.518519 -3.919601
v 4.381592 3.518519 -0.956681
v 4.381592 3.518519 -0.956681
v -5.062408 3.518519 -0.956681
v 4.381592 3.518519 -3.919601
v -5.062408 3.518519 -3.919601
v 4.381592 3.888889 -0.956681
v -5.062408 3.888889 -0.956681
v 4.381592 3.518519 -0.956681
v -5.062408 3.518519 -0.956681
v 4.196594 0.740740 -3.549302
v 4.196594 0.740740 2.191468
v 4.196594 -0.000000 -3.549302
v 4.196594 0.000000 2.191468
v -4.877411 0.740740 2.191468
v 4.196594 0.740740 2.191468
v -4.877411 0.740740 -3.549302
v 4.196594 0.740740 -3.549302
v 4.196594 0.740740 2.191468
v -4.877411 0.740740 2.191468
v 4.196594 0.000000 2.191468
v -4.877411 0.000000 2.191468
v -4.877411 0.740740 2.191468
v -4.877411 0.740740 -3.549302
v -4.877411 0.000000 2.191468
v -4.877411 -0.000000 -3.549302
v -4.877411 -0.000000 -3.549302
v 4.196594 -0.000000 -3.549302
v -4.877411 0.000000 2.191468
v 4.196594 0.000000 2.191468
v -4.877411 0.740740 -3.549302
v 4.196594 0.740740 -3.549302
v -4.877411 -0.000000 -3.549302
v 4.196594 -0.000000 -3.549302
v 4.381592 1.111109 -3.734502
v 4.381592 1.111109 2.376659
v 4.381592 0.740740 -3.734502
v 4.381592 0.740740 2.376659
v -5.062408 1.111109 2.376659
v 4.381592 1.111109 2.376659
v -5.062408 1.111109 -3.734502
v 4.381592 1.111109 -3.734502
v 4.381592 1.111109 2.376659
v -5.062408 1.111109 2.376659
v 4.381592 0.740740 2.376659
v -5.062408 0.740740 2.376659
v -5.062408 1.111109 2.376659
v -5.062408 1.111109 -3.734502
v -5.062408 0.740740 2.376659
v -5.062408 0.740740 -3.734502
v -5.062408 0.740740 -3.734502
v 4.381592 0.740740 -3.734502
v -5.062408 0.740740 2.376659
v 4.381592 0.740740 2.376659
v -5.062408 1.111109 -3.734502
v 4.381592 1.111109 -3.734502
v -5.062408 0.740740 -3.734502
v 4.381592 0.740740 -3.734502
v -5.062408 2.963849 -0.956681
v -5.062408 2.963849 -0.956681
v -5.062408 3.519399 -2.067801
v -5.062408 3.519399 -0.956681
v -5.062408 2.963849 -0.956681
v 4.381592 2.963849 -0.956681
v -5.062408 3.519399 -0.956681
v 4.381592 3.519399 -0.956681
v 4.381592 2.963849 -0.956681
v 4.381592 2.963849 -0.956681
v 4.381592 3.519399 -0.956681
v 4.381592 3.519399 -2.067801
v 4.381592 3.519399 -2.067801
v -5.062408 3.519399 -2.067801
v 4.381592 3.519399 -0.956681
v -5.062408 3.519399 -0.956681
v 4.381592 2.963849 -0.956681
v -5.062408 2.963849 -0.956681
v 4.381592 3.519399 -2.067801
v -5.062408 3.519399 -2.067801
v -5.062408 6.297179 -0.956681
v -5.062408 6.297179 -0.956681
v -5.062408 6.852729 -2.067801
v -5.062408 6.852729 -0.956682
v -5.062408 6.297179 -0.956681
v 4.381592 6.297179 -0.956681
v -5.062408 6.852729 -0.956682
v 4.381592 6.852729 -0.956682
v 4.381592 6.297179 -0.956681
v 4.381592 6.297179 -0.956681
v 4.381592 6.852729 -0.956682
v 4.381592 6.852729 -2.067801
v 4.381592 6.852729 -2.067801
v -5.062408 6.852729 -2.067801
v 4.381592 6.852729 -0.956682
v -5.062408 6.852729 -0.956682
v 4.381592 6.297179 -0.956681
v -5.062408 6.297179 -0.956681
v 4.381592 6.852729 -2.067801
v -5.062408 6.852729 -2.067801
v 4.381592 1.111109 -0.956681
v 4.381592 9.999999 -0.956683
v 4.381592 1.111109 -0.771492
v 4.381592 9.999999 -0.771493
v -5.062408 9.999999 -0.956683
v 4.381592 9.999999 -0.956683
v -5.062408 1.111109 -0.956681
v 4.381592 1.111109 -0.956681
v 4.381592 9.999999 -0.956683
v -5.062408 9.999999 -0.956683
v 4.381592 9.999999 -0.771493
v -5.062408 9.999999 -0.771493
v -5.062408 9.999999 -0.956683
v -5.062408 1.111109 -0.956681
v -5.062408 9.999999 -0.771493
v -5.062408 1.111109 -0.771492
v -5.062408 1.111109 -0.771492
v 4.381592 1.111109 -0.771492
v -5.062408 9.999999 -0.771493
v 4.381592 9.999999 -0.771493
v -5.062408 1.111109 -0.956681
v 4.381592 1.111109 -0.956681
v -5.062408 1.111109 -0.771492
v 4.381592 1.111109 -0.771492
v 4.381592 1.111109 -0.586311
v 4.381592 9.999999 -0.586313
v 4.381592 1.111109 -0.401122
v 4.381592 9.999999 -0.401124
v -5.062408 9.999999 -0.586313
v 4.381592 9.999999 -0.586313
v -5.062408 1.111109 -0.586311
v 4.381592 1.111109 -0.586311
v 4.381592 9.999999 -0.586313
v -5.062408 9.999999 -0.586313
v 4.381592 9.999999 -0.401124
v -5.062408 9.999999 -0.401124
v -5.062408 9.999999 -0.586313
v -5.062408 1.111109 -0.586311
v -5.062408 9.999999 -0.401124
v -5.062408 1.111109 -0.401122
v -5.062408 1.111109 -0.401122
v 4.381592 1.111109 -0.401122
v -5.062408 9.999999 -0.401124
v 4.381592 9.999999 -0.401124
v -5.062408 1.111109 -0.586311
v 4.381592 1.111109 -0.586311
v -5.062408 1.111109 -0.401122
v 4.381592 1.111109 -0.401122
v 4.381592 2.963849 -0.401122
v 4.381592 2.963849 -0.401122
v 4.381592 3.519399 0.709989
v 4.381592 3.519399 -0.401122
v 4.381592 2.963849 -0.401122
v -5.062408 2.963849 -0.401122
v 4.381592 3.519399 -0.401122
v -5.062408 3.519399 -0.401122
v -5.062408 2.963849 -0.401122
v -5.062408 2.963849 -0.401122
v -5.062408 3.519399 -0.401122
v -5.062408 3.519399 0.709989
v -5.062408 3.519399 0.709989
v 4.381592 3.519399 0.709989
v -5.062408 3.519399 -0.401122
v 4.381592 3.519399 -0.401122
v -5.062408 2.963849 -0.401122
v 4.381592 2.963849 -0.401122
v -5.062408 3.519399 0.709989
v 4.381592 3.519399 0.709989
v 4.381592 3.888889 -0.401122
v 4.381592 3.888889 2.561838
v 4.381592 3.518519 -0.401122
v 4.381592 3.518519 2.561838
v -5.062408 3.888889 2.561838
v 4.381592 3.888889 2.561838
v -5.062408 3.888889 -0.401122
v 4.381592 3.888889 -0.401122
v 4.381592 3.888889 2.561838
v -5.062408 3.888889 2.561838
v 4.381592 3.518519 2.561838
v -5.062408 3.518519 2.561838
v -5.062408 3.888889 2.561838
v -5.062408 3.888889 -0.401122
v -5.062408 3.518519 2.561838
v -5.062408 3.518519 -0.401122
v -5.062408 3.518519 -0.401122
v 4.381592 3.518519 -0.401122
v -5.062408 3.518519 2.561838
v 4.381592 3.518519 2.561838
v -5.062408 3.888889 -0.401122
v 4.381592 3.888889 -0.401122
v -5.062408 3.518519 -0.401122
v 4.381592 3.518519 -0.401122
v 4.196594 1.111109 -0.771492
v 4.196594 9.814819 -0.771493
v 4.196594 1.111109 -0.586311
v 4.196594 9.814819 -0.586313
v -4.877411 9.814819 -0.771493
v 4.196594 9.814819 -0.771493
v -4.877411 1.111109 -0.771492
v 4.196594 1.111109 -0.771492
v 4.196594 9.814819 -0.771493
v -4.877411 9.814819 -0.771493
v 4.196594 9.814819 -0.586313
v -4.877411 9.814819 -0.586313
v -4.877411 9.814819 -0.771493
v -4.877411 1.111109 -0.771492
v -4.877411 9.814819 -0.586313
v -4.877411 1.111109 -0.586311
v -4.877411 1.111109 -0.586311
v 4.196594 1.111109 -0.586311
v -4.877411 9.814819 -0.586313
v 4.196594 9.814819 -0.586313
v -4.877411 1.111109 -0.771492
v 4.196594 1.111109 -0.771492
v -4.877411 1.111109 -0.586311
v 4.196594 1.111109 -0.586311
v 4.381592 6.297179 -0.401122
v 4.381592 6.297179 -0.401122
v 4.381592 6.852729 0.709987
v 4.381592 6.852729 -0.401123
v 4.381592 6.297179 -0.401122
v -5.062408 6.297179 -0.401122
v 4.381592 6.852729 -0.401123
v -5.062408 6.852729 -0.401123
v -5.062408 6.297179 -0.401122
v -5.062408 6.297179 -0.401122
v -5.062408 6.852729 -0.401123
v -5.062408 6.852729 0.709987
v -5.062408 6.852729 0.709987
v 4.381592 6.852729 0.709987
v -5.062408 6.852729 -0.401123
v 4.381592 6.852729 -0.401123
v -5.062408 6.297179 -0.401122
v 4.381592 6.297179 -0.401122
v -5.062408 6.852729 0.709987
v 4.381592 6.852729 0.709987
v 4.381592 7.222219 -0.401123
v 4.381592 7.222219 2.561837
v 4.381592 6.851849 -0.401123
v 4.381592 6.851850 2.561837
v -5.062408 7.222219 2.561837
v 4.381592 7.222219 2.561837
v -5.062408 7.222219 -0.401123
v 4.381592 7.222219 -0.401123
v 4.381592 7.222219 2.561837
v -5.062408 7.222219 2.561837
v 4.381592 6.851850 2.561837
v -5.062408 6.851850 2.561837
v -5.062408 7.222219 2.561837
v -5.062408 7.222219 -0.401123
v -5.062408 6.851850 2.561837
v -5.062408 6.851849 -0.401123
v -5.062408 6.851849 -0.401123
v 4.381592 6.851849 -0.401123
v -5.062408 6.851850 2.561837
v 4.381592 6.851850 2.561837
v -5.062408 7.222219 -0.401123
v 4.381592 7.222219 -0.401123
v -5.062408 6.851849 -0.401123
v 4.381592 6.851849 -0.401123
vn -1.0000 -0.0000 -0.0000
vn -0.0000 1.0000 -0.0000
vn -0.0000 -0.0000 -1.0000
vn 1.0000 -0.0000 -0.0000
vn -0.0000 -1.0000 -0.0000
vn -0.0000 -0.0000 1.0000
vn -0.0000 -0.8944 -0.4472
vn 1.0000 -0.0000 -0.0001
vn -0.0000 -0.8944 0.4472
vt 2.620370 -2.250000
vt 2.250000 -2.250000
vt 2.620370 -2.296300
vt 2.250000 -2.296300
vt 3.430560 -2.250000
vt 3.430560 -2.620370
vt 2.250000 -2.620370
vt 3.430560 -2.296300
vt 7.120370 -6.750000
vt 6.750000 -6.750000
vt 7.120370 -6.796300
vt 6.750000 -6.796300
vt 7.930560 -6.750000
vt 7.930560 -7.120370
vt 6.750000 -7.120370
vt 7.930560 -6.796300
vt 5.717590 1.000000
vt 5.000000 1.000000
vt 5.717590 0.907407
vt 5.000000 0.907407
vt 6.134260 1.000000
vt 6.134260 0.282407
vt 5.000000 0.282407
vt 6.134260 0.907407
vt 2.263890 -3.500000
vt 1.500000 -3.500000
vt 2.263890 -3.546300
vt 1.500000 -3.546300
vt 2.680560 -3.500000
vt 2.680560 -4.263890
vt 1.500000 -4.263890
vt 2.680560 -3.546300
vt 7.750000 -3.500000
vt 7.888890 -3.569440
vt 7.750000 -3.569440
vt 8.930560 -3.500000
vt 8.930560 -3.569440
vt 7.888890 -3.500000
vt 8.930560 -3.638890
vt 7.750000 -3.638890
vt 8.930560 -3.655280
vt 7.750000 -3.655280
vt 6.500000 -1.250000
vt 6.638890 -1.319440
vt 6.500000 -1.319440
vt 7.680560 -1.250000
vt 7.680560 -1.319440
vt 6.638890 -1.250000
vt 7.680560 -1.388890
vt 6.500000 -1.388890
vt 7.680560 -1.405280
vt 6.500000 -1.405280
vt 1.361110 0.250000
vt 0.250000 0.250000
vt 1.361110 0.226852
vt 0.250000 0.226852
vt 1.430560 0.250000
vt 1.430560 -0.861111
vt 0.250000 -0.861111
vt 1.430560 0.226852
vt 7.361110 -5.250000
vt 6.250000 -5.250000
vt 7.361110 -5.273150
vt 6.250000 -5.273150
vt 7.430560 -5.250000
vt 7.430560 -6.361110
vt 6.250000 -6.361110
vt 7.430560 -5.273150
vt 3.250000 -5.250000
vt 3.388890 -5.319440
vt 3.250000 -5.319440
vt 4.430560 -5.250000
vt 4.430560 -5.319440
vt 3.388890 -5.250000
vt 4.430560 -5.388890
vt 3.250000 -5.388890
vt 4.430560 -5.405280
vt 3.250000 -5.405280
vt 5.120370 -1.750000
vt 4.750000 -1.750000
vt 5.120370 -1.796300
vt 4.750000 -1.796300
vt 5.930560 -1.750000
vt 5.930560 -2.120370
vt 4.750000 -2.120370
vt 5.930560 -1.796300
vt 3.750000 1.000000
vt 3.888890 0.930556
vt 3.750000 0.930556
vt 4.930560 1.000000
vt 4.930560 0.930556
vt 3.888890 1.000000
vt 4.930560 0.861111
vt 3.750000 0.861111
vt 4.930560 0.844718
vt 3.750000 0.844718
vt 5.370370 -6.500000
vt 5.000000 -6.500000
vt 5.370370 -6.546300
vt 5.000000 -6.546300
vt 6.180560 -6.500000
vt 6.180560 -6.870370
vt 5.000000 -6.870370
vt 6.180560 -6.546300
vt 5.087960 -2.250000
vt 4.000000 -2.250000
vt 5.087960 -2.273150
vt 4.000000 -2.273150
vt 5.134260 -2.250000
vt 5.134260 -3.337960
vt 4.000000 -3.337960
vt 5.134260 -2.273150
s 0
usemtl Part1Mtl
f 1/1/1 2/2/1 3/3/1
f 3/3/1 2/2/1 4/4/1
f 5/5/2 6/2/2 7/6/2
f 7/6/2 6/2/2 8/7/2
f 9/5/3 10/2/3 11/8/3
f 11/8/3 10/2/3 12/4/3
f 13/1/4 14/2/4 15/3/4
f 15/3/4 14/2/4 16/4/4
f 17/5/5 18/2/5 19/6/5
f 19/6/5 18/2/5 20/7/5
f 21/5/6 22/2/6 23/8/6
f 23/8/6 22/2/6 24/4/6
f 25/9/1 26/10/1 27/11/1
f 27/11/1 26/10/1 28/12/1
f 29/13/2 30/10/2 31/14/2
f 31/14/2 30/10/2 32/15/2
f 33/13/3 34/10/3 35/16/3
f 35/16/3 34/10/3 36/12/3
f 37/9/4 38/10/4 39/11/4
f 39/11/4 38/10/4 40/12/4
f 41/13/5 42/10/5 43/14/5
f 43/14/5 42/10/5 44/15/5
f 45/13/6 46/10/6 47/16/6
f 47/16/6 46/10/6 48/12/6
f 49/17/4 50/18/4 51/19/4
f 51/19/4 50/18/4 52/20/4
f 53/21/2 54/18/2 55/22/2
f 55/22/2 54/18/2 56/23/2
f 57/21/6 58/18/6 59/24/6
f 59/24/6 58/18/6 60/20/6
f 61/17/1 62/18/1 63/19/1
f 63/19/1 62/18/1 64/20/1
f 65/21/5 66/18/5 67/22/5
f 67/22/5 66/18/5 68/23/5
f 69/21/3 70/18/3 71/24/3
f 71/24/3 70/18/3 72/20/3
f 73/25/4 74/26/4 75/27/4
f 75/27/4 74/26/4 76/28/4
f 77/29/2 78/26/2 79/30/2
f 79/30/2 78/26/2 80/31/2
f 81/29/6 82/26/6 83/32/6
f 83/32/6 82/26/6 84/28/6
f 85/25/1 86/26/1 87/27/1
f 87/27/1 86/26/1 88/28/1
f 89/29/5 90/26/5 91/30/5
f 91/30/5 90/26/5 92/31/5
f 93/29/3 94/26/3 95/32/3
f 95/32/3 94/26/3 96/28/3
f 97/33/6 98/33/1 99/34/1
f 99/34/1 98/33/1 100/35/1
f 101/36/6 102/33/6 103/37/6
f 103/37/6 102/33/6 104/35/6
f 105/38/3 106/38/4 107/34/4
f 107/34/4 106/38/4 108/35/4
f 109/36/2 110/33/2 111/39/2
f 111/39/2 110/33/2 112/40/2
f 113/36/7 114/33/7 115/41/7
f 115/41/7 114/33/7 116/42/7
f 117/43/6 118/43/1 119/44/1
f 119/44/1 118/43/1 120/45/1
f 121/46/6 122/43/6 123/47/6
f 123/47/6 122/43/6 124/45/6
f 125/48/3 126/48/4 127/44/4
f 127/44/4 126/48/4 128/45/4
f 129/46/2 130/43/2 131/49/2
f 131/49/2 130/43/2 132/50/2
f 133/46/7 134/43/7 135/51/7
f 135/51/7 134/43/7 136/52/7
f 137/53/4 138/54/4 139/55/4
f 139/55/4 138/54/4 140/56/4
f 141/57/3 142/54/3 143/58/3
f 143/58/3 142/54/3 144/59/3
f 145/57/2 146/54/2 147/60/2
f 147/60/2 146/54/2 148/56/2
f 149/53/1 150/54/1 151/55/1
f 151/55/1 150/54/1 152/56/1
f 153/57/6 154/54/6 155/58/6
f 155/58/6 154/54/6 156/59/6
f 157/57/5 158/54/5 159/60/5
f 159/60/5 158/54/5 160/56/5
f 161/61/4 162/62/4 163/63/4
f 163/63/4 162/62/4 164/64/4
f 165/65/3 166/62/3 167/66/3
f 167/66/3 166/62/3 168/67/3
f 169/65/2 170/62/2 171/68/2
f 171/68/2 170/62/2 172/64/2
f 173/61/1 174/62/1 175/63/1
f 175/63/1 174/62/1 176/64/1
f 177/65/6 178/62/6 179/66/6
f 179/66/6 178/62/6 180/67/6
f 181/65/5 182/62/5 183/68/5
f 183/68/5 182/62/5 184/64/5
f 185/69/3 186/69/8 187/70/4
f 187/70/4 186/69/4 188/71/4
f 189/72/3 190/69/3 191/73/3
f 191/73/3 190/69/3 192/71/3
f 193/74/3 194/74/1 195/70/1
f 195/70/1 194/74/1 196/71/1
f 197/72/2 198/69/2 199/75/2
f 199/75/2 198/69/2 200/76/2
f 201/72/9 202/69/9 203/77/9
f 203/77/9 202/69/9 204/78/9
f 205/79/4 206/80/4 207/81/4
f 207/81/4 206/80/4 208/82/4
f 209/83/2 210/80/2 211/84/2
f 211/84/2 210/80/2 212/85/2
f 213/83/6 214/80/6 215/86/6
f 215/86/6 214/80/6 216/82/6
f 217/79/1 218/80/1 219/81/1
f 219/81/1 218/80/1 220/82/1
f 221/83/5 222/80/5 223/84/5
f 223/84/5 222/80/5 224/85/5
f 225/83/3 226/80/3 227/86/3
f 227/86/3 226/80/3 228/82/3
f 253/87/3 254/87/8 255/88/4
f 255/88/4 254/87/4 256/89/4
f 257/90/3 258/87/3 259/91/3
f 259/91/3 258/87/3 260/89/3
f 261/92/3 262/92/1 263/88/1
f 263/88/1 262/92/1 264/89/1
f 265/90/2 266/87/2 267/93/2
f 267/93/2 266/87/2 268/94/2
f 269/90/9 270/87/9 271/95/9
f 271/95/9 270/87/9 272/96/9
f 273/97/4 274/98/4 275/99/4
f 275/99/4 274/98/4 276/100/4
f 277/101/2 278/98/2 279/102/2
f 279/102/2 278/98/2 280/103/2
f 281/101/6 282/98/6 283/104/6
f 283/104/6 282/98/6 284/100/6
f 285/97/1 286/98/1 287/99/1
f 287/99/1 286/98/1 288/100/1
f 289/101/5 290/98/5 291/102/5
f 291/102/5 290/98/5 292/103/5
f 293/101/3 294/98/3 295/104/3
f 295/104/3 294/98/3 296/100/3
usemtl Part11Mtl
f 229/105/4 230/106/4 231/107/4
f 231/107/4 230/106/4 232/108/4
f 233/109/3 234/106/3 235/110/3
f 235/110/3 234/106/3 236/111/3
f 237/109/2 238/106/2 239/112/2
f 239/112/2 238/106/2 240/108/2
f 241/105/1 242/106/1 243/107/1
f 243/107/1 242/106/1 244/108/1
f 245/109/6 246/106/6 247/110/6
f 247/110/6 246/106/6 248/111/6
f 249/109/5 250/106/5 251/112/5
f 251/112/5 250/106/5 252/108/5
